<svg xmlns="http://www.w3.org/2000/svg" viewBox="0 0 400 325" width="100%" height="100%" shape-rendering="crispEdges">
  <rect x="250" y="0" width="25" height="25" fill="#000000" />
  <rect x="275" y="0" width="25" height="25" fill="#000000" />
  <rect x="300" y="0" width="25" height="25" fill="#000000" />
  <rect x="225" y="25" width="25" height="25" fill="#000000" />
  <rect x="250" y="25" width="25" height="25" fill="#884400" />
  <rect x="275" y="25" width="25" height="25" fill="#884400" />
  <rect x="300" y="25" width="25" height="25" fill="#884400" />
  <rect x="325" y="25" width="25" height="25" fill="#000000" />
  <rect x="200" y="50" width="25" height="25" fill="#000000" />
  <rect x="225" y="50" width="25" height="25" fill="#884400" />
  <rect x="250" y="50" width="25" height="25" fill="#884400" />
  <rect x="275" y="50" width="25" height="25" fill="#884400" />
  <rect x="300" y="50" width="25" height="25" fill="#000000" />
  <rect x="175" y="75" width="25" height="25" fill="#000000" />
  <rect x="200" y="75" width="25" height="25" fill="#884400" />
  <rect x="225" y="75" width="25" height="25" fill="#884400" />
  <rect x="250" y="75" width="25" height="25" fill="#884400" />
  <rect x="275" y="75" width="25" height="25" fill="#000000" />
  <rect x="150" y="100" width="25" height="25" fill="#000000" />
  <rect x="175" y="100" width="25" height="25" fill="#884400" />
  <rect x="200" y="100" width="25" height="25" fill="#884400" />
  <rect x="225" y="100" width="25" height="25" fill="#884400" />
  <rect x="250" y="100" width="25" height="25" fill="#000000" />
  <rect x="75" y="125" width="25" height="25" fill="#000000" />
  <rect x="100" y="125" width="25" height="25" fill="#000000" />
  <rect x="125" y="125" width="25" height="25" fill="#000000" />
  <rect x="150" y="125" width="25" height="25" fill="#000000" />
  <rect x="175" y="125" width="25" height="25" fill="#884400" />
  <rect x="200" y="125" width="25" height="25" fill="#884400" />
  <rect x="225" y="125" width="25" height="25" fill="#000000" />
  <rect x="250" y="125" width="25" height="25" fill="#000000" />
  <rect x="275" y="125" width="25" height="25" fill="#000000" />
  <rect x="300" y="125" width="25" height="25" fill="#000000" />
  <rect x="50" y="150" width="25" height="25" fill="#000000" />
  <rect x="75" y="150" width="25" height="25" fill="#FF0000" />
  <rect x="100" y="150" width="25" height="25" fill="#FF0000" />
  <rect x="125" y="150" width="25" height="25" fill="#FF0000" />
  <rect x="150" y="150" width="25" height="25" fill="#FF0000" />
  <rect x="175" y="150" width="25" height="25" fill="#000000" />
  <rect x="200" y="150" width="25" height="25" fill="#000000" />
  <rect x="225" y="150" width="25" height="25" fill="#FF0000" />
  <rect x="250" y="150" width="25" height="25" fill="#FF0000" />
  <rect x="275" y="150" width="25" height="25" fill="#FF0000" />
  <rect x="300" y="150" width="25" height="25" fill="#FF0000" />
  <rect x="325" y="150" width="25" height="25" fill="#000000" />
  <rect x="25" y="175" width="25" height="25" fill="#000000" />
  <rect x="50" y="175" width="25" height="25" fill="#FF0000" />
  <rect x="75" y="175" width="25" height="25" fill="#FF0000" />
  <rect x="100" y="175" width="25" height="25" fill="#FFFFFF" />
  <rect x="125" y="175" width="25" height="25" fill="#FFFFFF" />
  <rect x="150" y="175" width="25" height="25" fill="#FF0000" />
  <rect x="175" y="175" width="25" height="25" fill="#000000" />
  <rect x="200" y="175" width="25" height="25" fill="#FF0000" />
  <rect x="225" y="175" width="25" height="25" fill="#FF0000" />
  <rect x="250" y="175" width="25" height="25" fill="#FFFFFF" />
  <rect x="275" y="175" width="25" height="25" fill="#FFFFFF" />
  <rect x="300" y="175" width="25" height="25" fill="#FF0000" />
  <rect x="325" y="175" width="25" height="25" fill="#FF0000" />
  <rect x="350" y="175" width="25" height="25" fill="#000000" />
  <rect x="0" y="200" width="25" height="25" fill="#000000" />
  <rect x="25" y="200" width="25" height="25" fill="#FF0000" />
  <rect x="50" y="200" width="25" height="25" fill="#FF0000" />
  <rect x="75" y="200" width="25" height="25" fill="#FFFFFF" />
  <rect x="100" y="200" width="25" height="25" fill="#FFFFFF" />
  <rect x="125" y="200" width="25" height="25" fill="#FFFFFF" />
  <rect x="150" y="200" width="25" height="25" fill="#FF0000" />
  <rect x="175" y="200" width="25" height="25" fill="#000000" />
  <rect x="200" y="200" width="25" height="25" fill="#FF0000" />
  <rect x="225" y="200" width="25" height="25" fill="#FFFFFF" />
  <rect x="250" y="200" width="25" height="25" fill="#FFFFFF" />
  <rect x="275" y="200" width="25" height="25" fill="#FFFFFF" />
  <rect x="300" y="200" width="25" height="25" fill="#FF0000" />
  <rect x="325" y="200" width="25" height="25" fill="#FF0000" />
  <rect x="350" y="200" width="25" height="25" fill="#FF0000" />
  <rect x="375" y="200" width="25" height="25" fill="#000000" />
  <rect x="0" y="225" width="25" height="25" fill="#000000" />
  <rect x="25" y="225" width="25" height="25" fill="#FF0000" />
  <rect x="50" y="225" width="25" height="25" fill="#FF0000" />
  <rect x="75" y="225" width="25" height="25" fill="#FF0000" />
  <rect x="100" y="225" width="25" height="25" fill="#FF0000" />
  <rect x="125" y="225" width="25" height="25" fill="#FF0000" />
  <rect x="150" y="225" width="25" height="25" fill="#FF0000" />
  <rect x="175" y="225" width="25" height="25" fill="#000000" />
  <rect x="200" y="225" width="25" height="25" fill="#FF0000" />
  <rect x="225" y="225" width="25" height="25" fill="#FF0000" />
  <rect x="250" y="225" width="25" height="25" fill="#FF0000" />
  <rect x="275" y="225" width="25" height="25" fill="#FF0000" />
  <rect x="300" y="225" width="25" height="25" fill="#FF0000" />
  <rect x="325" y="225" width="25" height="25" fill="#FF0000" />
  <rect x="350" y="225" width="25" height="25" fill="#FF0000" />
  <rect x="375" y="225" width="25" height="25" fill="#000000" />
  <rect x="0" y="250" width="25" height="25" fill="#000000" />
  <rect x="25" y="250" width="25" height="25" fill="#FF0000" />
  <rect x="50" y="250" width="25" height="25" fill="#FF0000" />
  <rect x="75" y="250" width="25" height="25" fill="#FF0000" />
  <rect x="100" y="250" width="25" height="25" fill="#FF0000" />
  <rect x="125" y="250" width="25" height="25" fill="#FF0000" />
  <rect x="150" y="250" width="25" height="25" fill="#FF0000" />
  <rect x="175" y="250" width="25" height="25" fill="#000000" />
  <rect x="200" y="250" width="25" height="25" fill="#FF0000" />
  <rect x="225" y="250" width="25" height="25" fill="#FF0000" />
  <rect x="250" y="250" width="25" height="25" fill="#FF0000" />
  <rect x="275" y="250" width="25" height="25" fill="#FF0000" />
  <rect x="300" y="250" width="25" height="25" fill="#FF0000" />
  <rect x="325" y="250" width="25" height="25" fill="#FF0000" />
  <rect x="350" y="250" width="25" height="25" fill="#FF0000" />
  <rect x="375" y="250" width="25" height="25" fill="#000000" />
  <rect x="25" y="275" width="25" height="25" fill="#000000" />
  <rect x="50" y="275" width="25" height="25" fill="#FF0000" />
  <rect x="75" y="275" width="25" height="25" fill="#FF0000" />
  <rect x="100" y="275" width="25" height="25" fill="#FF0000" />
  <rect x="125" y="275" width="25" height="25" fill="#FF0000" />
  <rect x="150" y="275" width="25" height="25" fill="#000000" />
  <rect x="200" y="275" width="25" height="25" fill="#000000" />
  <rect x="225" y="275" width="25" height="25" fill="#FF0000" />
  <rect x="250" y="275" width="25" height="25" fill="#FF0000" />
  <rect x="275" y="275" width="25" height="25" fill="#FF0000" />
  <rect x="300" y="275" width="25" height="25" fill="#FF0000" />
  <rect x="325" y="275" width="25" height="25" fill="#FF0000" />
  <rect x="350" y="275" width="25" height="25" fill="#000000" />
  <rect x="50" y="300" width="25" height="25" fill="#000000" />
  <rect x="75" y="300" width="25" height="25" fill="#000000" />
  <rect x="100" y="300" width="25" height="25" fill="#000000" />
  <rect x="125" y="300" width="25" height="25" fill="#000000" />
  <rect x="225" y="300" width="25" height="25" fill="#000000" />
  <rect x="250" y="300" width="25" height="25" fill="#000000" />
  <rect x="275" y="300" width="25" height="25" fill="#000000" />
  <rect x="300" y="300" width="25" height="25" fill="#000000" />
  <rect x="325" y="300" width="25" height="25" fill="#000000" />
</svg>